<svg width="30" height="31" viewBox="0 0 30 31" fill="none" xmlns="http://www.w3.org/2000/svg">
<path d="M18.5236 15.5569C18.2645 18.493 16.2139 20.1625 13.8864 20.1625C11.5589 20.1625 10.0097 18.1003 10.2336 15.5569C10.4576 13.0135 12.3706 10.9514 14.6981 10.9514C17.0257 10.9514 18.747 13.0239 18.5236 15.5569Z" stroke="#005EA5" stroke-width="1.84222" stroke-linecap="round" stroke-linejoin="round"/>
<path d="M18.5104 24.8544C16.8662 25.5452 15.7885 25.6891 13.9463 25.6891C8.35058 25.6891 4.21711 21.1527 4.70702 15.5569C5.19694 9.96119 10.1364 5.42473 15.7321 5.42473C22.0354 5.42473 25.5005 9.55418 25.0134 15.0808C24.6502 19.2068 22.0135 20.3956 20.633 20.151C19.3342 19.9207 18.2623 18.7451 18.4603 16.4953L18.9485 10.9543" stroke="#005EA5" stroke-width="1.84222" stroke-linecap="round" stroke-linejoin="round"/>
</svg>
