<svg width="24" height="25" viewBox="0 0 24 25" fill="none" xmlns="http://www.w3.org/2000/svg">
<g clip-path="url(#clip0_143_5276)">
<path d="M18.1118 10.61V6.47652C18.1118 3.36373 15.5859 0.858513 12.473 0.858513H11.2561C8.1433 0.858513 5.60421 3.36373 5.60421 6.47652V10.61C4.35347 10.6133 3.38696 11.5935 3.38696 12.7981V22.2083C3.38696 23.4148 4.41025 24.4522 5.61684 24.4522H18.1123C19.3189 24.4522 20.2721 23.4148 20.2721 22.2082V12.7981C20.2721 11.5935 19.3056 10.6132 18.1118 10.61ZM6.74132 6.47652C6.74132 3.99071 8.77033 1.99552 11.2562 1.99552H12.4731C14.9589 1.99552 16.9747 3.99071 16.9747 6.47652V10.6371H15.8377V6.47652C15.8377 4.61765 14.332 3.13258 12.4731 3.13258H11.2562C9.39731 3.13258 7.87838 4.6176 7.87838 6.47652V10.6371H6.74132V6.47652ZM14.7006 6.47652V10.6371H9.01539V6.47652C9.01539 5.24458 10.0242 4.26964 11.2561 4.26964H12.473C13.7049 4.26964 14.7006 5.24458 14.7006 6.47652ZM19.1351 22.2082C19.1351 22.8039 18.6645 23.3152 18.0839 23.3152H5.57527C4.9947 23.3152 4.52407 22.8039 4.52407 22.2082V12.8242C4.52407 12.2286 4.9947 11.7742 5.57527 11.7742H18.0839C18.6645 11.7742 19.1351 12.2286 19.1351 12.8242V22.2082Z" fill="#005EA5"/>
<path d="M11.8701 13.2487C10.4116 13.2487 9.21094 14.4389 9.21094 15.9018C9.21094 16.6904 9.58397 17.4293 10.1525 17.9338V21.1832C10.1525 21.4971 10.4354 21.7801 10.7494 21.7801H13.0235C13.3375 21.7801 13.5636 21.4971 13.5636 21.1832V17.9328C14.189 17.4337 14.5144 16.6954 14.5144 15.9018C14.5144 14.4388 13.336 13.2487 11.8701 13.2487ZM12.698 17.1729C12.5375 17.2779 12.4265 17.4568 12.4265 17.6486V20.6431H11.2895V17.6486C11.2895 17.4568 11.207 17.2779 11.0465 17.1729C10.6091 16.8868 10.3551 16.4115 10.3551 15.9018C10.3551 15.0659 11.0351 14.3857 11.8666 14.3857C12.7055 14.3857 13.3827 15.0659 13.3827 15.9018C13.3827 16.4194 13.1234 16.8945 12.698 17.1729Z" fill="#005EA5"/>
</g>
<defs>
<clipPath id="clip0_143_5276">
<rect width="23.5937" height="23.5937" fill="white" transform="translate(0.0327148 0.858513)"/>
</clipPath>
</defs>
</svg>
